<svg width="15" height="20" viewBox="0 0 15 20" fill="none" xmlns="http://www.w3.org/2000/svg">
<g id="fluent-emoji:clapping-hands" clip-path="url(#clip0_52_244)">
<g id="Group">
<g id="Clip path group">
<mask id="mask0_52_244" style="mask-type:luminance" maskUnits="userSpaceOnUse" x="0" y="0" width="15" height="20">
<g id="f268id15">
<path id="Vector" d="M0 0.0195312H15V19.5048H0V0.0195312Z" fill="white"/>
</g>
</mask>
<g mask="url(#mask0_52_244)">
<g id="Group_2">
<path id="Vector_2" d="M11.3729 13.6885L11.3007 7.97079C11.2539 7.42763 11.0251 6.69876 10.2418 6.69876C9.32777 6.75539 9.29214 7.97018 9.29214 7.97018L7.89995 4.73988C7.55167 4.05181 6.98074 4.00431 6.62355 4.28746C6.26589 4.5706 6.18808 5.14481 6.18808 5.14481L5.89839 4.65463C5.67995 4.19064 5.02745 4.13706 4.69464 4.40072C4.14199 4.83853 4.06183 5.74581 4.41902 6.24695C4.39558 6.21407 4.12277 6.09107 3.6648 6.45398C3.30761 6.73712 3.19699 7.58412 3.39667 8.06456C3.59589 8.5456 3.62495 8.6205 3.62495 8.6205C3.62495 8.6205 3.31699 8.43173 2.83089 8.85615C2.48355 9.15939 2.35886 10.0594 2.5773 10.5234L3.7473 13.0863L5.35745 16.5041C6.30433 18.2474 8.32277 18.8491 9.78949 17.6915C10.7898 16.9024 11.4681 15.2351 11.3729 13.6885Z" fill="#FF9D25"/>
<path id="Vector_3" d="M11.3729 13.6885L11.3007 7.97079C11.2539 7.42763 11.0251 6.69876 10.2418 6.69876C9.32777 6.75539 9.29214 7.97018 9.29214 7.97018L7.89995 4.73988C7.55167 4.05181 6.98074 4.00431 6.62355 4.28746C6.26589 4.5706 6.18808 5.14481 6.18808 5.14481L5.89839 4.65463C5.67995 4.19064 5.02745 4.13706 4.69464 4.40072C4.14199 4.83853 4.06183 5.74581 4.41902 6.24695C4.39558 6.21407 4.12277 6.09107 3.6648 6.45398C3.30761 6.73712 3.19699 7.58412 3.39667 8.06456C3.59589 8.5456 3.62495 8.6205 3.62495 8.6205C3.62495 8.6205 3.31699 8.43173 2.83089 8.85615C2.48355 9.15939 2.35886 10.0594 2.5773 10.5234L3.7473 13.0863L5.35745 16.5041C6.30433 18.2474 8.32277 18.8491 9.78949 17.6915C10.7898 16.9024 11.4681 15.2351 11.3729 13.6885Z" fill="url(#paint0_linear_52_244)"/>
<path id="Vector_4" d="M11.3729 13.6885L11.3007 7.97079C11.2539 7.42763 11.0251 6.69876 10.2418 6.69876C9.32777 6.75539 9.29214 7.97018 9.29214 7.97018L7.89995 4.73988C7.55167 4.05181 6.98074 4.00431 6.62355 4.28746C6.26589 4.5706 6.18808 5.14481 6.18808 5.14481L5.89839 4.65463C5.67995 4.19064 5.02745 4.13706 4.69464 4.40072C4.14199 4.83853 4.06183 5.74581 4.41902 6.24695C4.39558 6.21407 4.12277 6.09107 3.6648 6.45398C3.30761 6.73712 3.19699 7.58412 3.39667 8.06456C3.59589 8.5456 3.62495 8.6205 3.62495 8.6205C3.62495 8.6205 3.31699 8.43173 2.83089 8.85615C2.48355 9.15939 2.35886 10.0594 2.5773 10.5234L3.7473 13.0863L5.35745 16.5041C6.30433 18.2474 8.32277 18.8491 9.78949 17.6915C10.7898 16.9024 11.4681 15.2351 11.3729 13.6885Z" fill="url(#paint1_radial_52_244)"/>
<path id="Vector_5" d="M11.3729 13.6885L11.3007 7.97079C11.2539 7.42763 11.0251 6.69876 10.2418 6.69876C9.32777 6.75539 9.29214 7.97018 9.29214 7.97018L7.89995 4.73988C7.55167 4.05181 6.98074 4.00431 6.62355 4.28746C6.26589 4.5706 6.18808 5.14481 6.18808 5.14481L5.89839 4.65463C5.67995 4.19064 5.02745 4.13706 4.69464 4.40072C4.14199 4.83853 4.06183 5.74581 4.41902 6.24695C4.39558 6.21407 4.12277 6.09107 3.6648 6.45398C3.30761 6.73712 3.19699 7.58412 3.39667 8.06456C3.59589 8.5456 3.62495 8.6205 3.62495 8.6205C3.62495 8.6205 3.31699 8.43173 2.83089 8.85615C2.48355 9.15939 2.35886 10.0594 2.5773 10.5234L3.7473 13.0863L5.35745 16.5041C6.30433 18.2474 8.32277 18.8491 9.78949 17.6915C10.7898 16.9024 11.4681 15.2351 11.3729 13.6885Z" fill="url(#paint2_radial_52_244)"/>
<path id="Vector_6" d="M11.3729 13.6885L11.3007 7.97079C11.2539 7.42763 11.0251 6.69876 10.2418 6.69876C9.32777 6.75539 9.29214 7.97018 9.29214 7.97018L7.89995 4.73988C7.55167 4.05181 6.98074 4.00431 6.62355 4.28746C6.26589 4.5706 6.18808 5.14481 6.18808 5.14481L5.89839 4.65463C5.67995 4.19064 5.02745 4.13706 4.69464 4.40072C4.14199 4.83853 4.06183 5.74581 4.41902 6.24695C4.39558 6.21407 4.12277 6.09107 3.6648 6.45398C3.30761 6.73712 3.19699 7.58412 3.39667 8.06456C3.59589 8.5456 3.62495 8.6205 3.62495 8.6205C3.62495 8.6205 3.31699 8.43173 2.83089 8.85615C2.48355 9.15939 2.35886 10.0594 2.5773 10.5234L3.7473 13.0863L5.35745 16.5041C6.30433 18.2474 8.32277 18.8491 9.78949 17.6915C10.7898 16.9024 11.4681 15.2351 11.3729 13.6885Z" fill="url(#paint3_radial_52_244)"/>
<path id="Vector_7" d="M11.3729 13.6885L11.3007 7.97079C11.2539 7.42763 11.0251 6.69876 10.2418 6.69876C9.32777 6.75539 9.29214 7.97018 9.29214 7.97018L7.89995 4.73988C7.55167 4.05181 6.98074 4.00431 6.62355 4.28746C6.26589 4.5706 6.18808 5.14481 6.18808 5.14481L5.89839 4.65463C5.67995 4.19064 5.02745 4.13706 4.69464 4.40072C4.14199 4.83853 4.06183 5.74581 4.41902 6.24695C4.39558 6.21407 4.12277 6.09107 3.6648 6.45398C3.30761 6.73712 3.19699 7.58412 3.39667 8.06456C3.59589 8.5456 3.62495 8.6205 3.62495 8.6205C3.62495 8.6205 3.31699 8.43173 2.83089 8.85615C2.48355 9.15939 2.35886 10.0594 2.5773 10.5234L3.7473 13.0863L5.35745 16.5041C6.30433 18.2474 8.32277 18.8491 9.78949 17.6915C10.7898 16.9024 11.4681 15.2351 11.3729 13.6885Z" fill="url(#paint4_radial_52_244)"/>
<path id="Vector_8" d="M11.3729 13.6885L11.3007 7.97079C11.2539 7.42763 11.0251 6.69876 10.2418 6.69876C9.32777 6.75539 9.29214 7.97018 9.29214 7.97018L7.89995 4.73988C7.55167 4.05181 6.98074 4.00431 6.62355 4.28746C6.26589 4.5706 6.18808 5.14481 6.18808 5.14481L5.89839 4.65463C5.67995 4.19064 5.02745 4.13706 4.69464 4.40072C4.14199 4.83853 4.06183 5.74581 4.41902 6.24695C4.39558 6.21407 4.12277 6.09107 3.6648 6.45398C3.30761 6.73712 3.19699 7.58412 3.39667 8.06456C3.59589 8.5456 3.62495 8.6205 3.62495 8.6205C3.62495 8.6205 3.31699 8.43173 2.83089 8.85615C2.48355 9.15939 2.35886 10.0594 2.5773 10.5234L3.7473 13.0863L5.35745 16.5041C6.30433 18.2474 8.32277 18.8491 9.78949 17.6915C10.7898 16.9024 11.4681 15.2351 11.3729 13.6885Z" fill="url(#paint5_radial_52_244)"/>
<path id="Vector_9" d="M11.3729 13.6885L11.3007 7.97079C11.2539 7.42763 11.0251 6.69876 10.2418 6.69876C9.32777 6.75539 9.29214 7.97018 9.29214 7.97018L7.89995 4.73988C7.55167 4.05181 6.98074 4.00431 6.62355 4.28746C6.26589 4.5706 6.18808 5.14481 6.18808 5.14481L5.89839 4.65463C5.67995 4.19064 5.02745 4.13706 4.69464 4.40072C4.14199 4.83853 4.06183 5.74581 4.41902 6.24695C4.39558 6.21407 4.12277 6.09107 3.6648 6.45398C3.30761 6.73712 3.19699 7.58412 3.39667 8.06456C3.59589 8.5456 3.62495 8.6205 3.62495 8.6205C3.62495 8.6205 3.31699 8.43173 2.83089 8.85615C2.48355 9.15939 2.35886 10.0594 2.5773 10.5234L3.7473 13.0863L5.35745 16.5041C6.30433 18.2474 8.32277 18.8491 9.78949 17.6915C10.7898 16.9024 11.4681 15.2351 11.3729 13.6885Z" fill="url(#paint6_radial_52_244)"/>
<path id="Vector_10" d="M11.3729 13.6885L11.3007 7.97079C11.2539 7.42763 11.0251 6.69876 10.2418 6.69876C9.32777 6.75539 9.29214 7.97018 9.29214 7.97018L7.89995 4.73988C7.55167 4.05181 6.98074 4.00431 6.62355 4.28746C6.26589 4.5706 6.18808 5.14481 6.18808 5.14481L5.89839 4.65463C5.67995 4.19064 5.02745 4.13706 4.69464 4.40072C4.14199 4.83853 4.06183 5.74581 4.41902 6.24695C4.39558 6.21407 4.12277 6.09107 3.6648 6.45398C3.30761 6.73712 3.19699 7.58412 3.39667 8.06456C3.59589 8.5456 3.62495 8.6205 3.62495 8.6205C3.62495 8.6205 3.31699 8.43173 2.83089 8.85615C2.48355 9.15939 2.35886 10.0594 2.5773 10.5234L3.7473 13.0863L5.35745 16.5041C6.30433 18.2474 8.32277 18.8491 9.78949 17.6915C10.7898 16.9024 11.4681 15.2351 11.3729 13.6885Z" fill="url(#paint7_radial_52_244)"/>
<path id="Vector_11" d="M11.3729 13.6885L11.3007 7.97079C11.2539 7.42763 11.0251 6.69876 10.2418 6.69876C9.32777 6.75539 9.29214 7.97018 9.29214 7.97018L7.89995 4.73988C7.55167 4.05181 6.98074 4.00431 6.62355 4.28746C6.26589 4.5706 6.18808 5.14481 6.18808 5.14481L5.89839 4.65463C5.67995 4.19064 5.02745 4.13706 4.69464 4.40072C4.14199 4.83853 4.06183 5.74581 4.41902 6.24695C4.39558 6.21407 4.12277 6.09107 3.6648 6.45398C3.30761 6.73712 3.19699 7.58412 3.39667 8.06456C3.59589 8.5456 3.62495 8.6205 3.62495 8.6205C3.62495 8.6205 3.31699 8.43173 2.83089 8.85615C2.48355 9.15939 2.35886 10.0594 2.5773 10.5234L3.7473 13.0863L5.35745 16.5041C6.30433 18.2474 8.32277 18.8491 9.78949 17.6915C10.7898 16.9024 11.4681 15.2351 11.3729 13.6885Z" fill="url(#paint8_radial_52_244)"/>
<path id="Vector_12" fill-rule="evenodd" clip-rule="evenodd" d="M3.60504 8.61078C3.55644 8.59684 3.50731 8.58627 3.45785 8.57911C3.5291 8.58216 3.57973 8.59921 3.60504 8.61078ZM3.62379 8.61565L3.66785 8.63026C3.82066 8.68324 3.96129 8.76727 4.05598 8.87687C4.10379 8.93167 4.17551 9.04432 4.26785 9.21482C4.35785 9.37984 4.45676 9.58017 4.55941 9.79512C4.64285 9.96927 4.7291 10.155 4.81348 10.3371C4.93301 10.594 5.04832 10.8412 5.14301 11.0312C5.17676 11.099 5.22987 11.1467 5.29066 11.1636C5.35145 11.1806 5.41493 11.1655 5.46715 11.1216C5.51936 11.0778 5.55603 11.0088 5.56908 10.9298C5.58214 10.8509 5.57051 10.7684 5.53676 10.7006C5.42945 10.4815 5.3246 10.2605 5.22223 10.0375C5.13785 9.8554 5.04879 9.6642 4.95785 9.47422C4.86011 9.26713 4.75788 9.06367 4.65129 8.86408C4.5566 8.68993 4.45863 8.52675 4.3677 8.4214C4.19895 8.22655 3.98145 8.10842 3.78879 8.04205C3.64901 7.99295 3.50512 7.96636 3.36035 7.96289C3.37092 7.99773 3.38313 8.03169 3.39691 8.06458C3.57035 8.4829 3.61535 8.59434 3.62379 8.61565Z" fill="url(#paint9_radial_52_244)"/>
<path id="Vector_13" fill-rule="evenodd" clip-rule="evenodd" d="M4.39633 6.22992C4.36155 6.21745 4.32615 6.20809 4.29039 6.20191C4.32658 6.20438 4.36228 6.21382 4.39633 6.22992ZM4.41133 6.2354C4.54258 6.28534 4.69961 6.38885 4.87633 6.59345C4.88992 6.60867 4.92133 6.65434 4.97148 6.74628C5.01836 6.83275 5.07461 6.94357 5.13648 7.0751C5.26117 7.33693 5.40602 7.66575 5.55367 8.00917C5.63195 8.18941 5.71117 8.37452 5.78805 8.55598C6.00086 9.05407 6.20008 9.52111 6.32242 9.76589C6.33858 9.80097 6.36002 9.83146 6.38545 9.85555C6.41088 9.87963 6.43978 9.89682 6.47043 9.90608C6.50108 9.91534 6.53286 9.91649 6.56386 9.90945C6.59486 9.90242 6.62445 9.88735 6.65087 9.86513C6.67729 9.84292 6.7 9.81403 6.71764 9.78017C6.73527 9.74631 6.74748 9.70819 6.75353 9.66807C6.75958 9.62795 6.75935 9.58666 6.75285 9.54666C6.74635 9.50666 6.73372 9.46877 6.7157 9.43525C6.6032 9.20874 6.41711 8.77397 6.20898 8.28562L5.96289 7.71141C5.82529 7.3891 5.68276 7.07037 5.53539 6.75542C5.47784 6.63229 5.41718 6.51166 5.35352 6.39372C5.30548 6.30111 5.25002 6.21538 5.18805 6.13798C4.81492 5.70747 4.47086 5.58813 4.20508 5.58508C4.21773 5.82621 4.28711 6.05577 4.41133 6.2354Z" fill="url(#paint10_radial_52_244)"/>
<path id="Vector_14" fill-rule="evenodd" clip-rule="evenodd" d="M6.18848 5.14423L6.23113 5.23435L6.82316 6.46923C7.1847 7.22652 7.54923 7.98138 7.91676 8.73378C7.95093 8.80048 8.00396 8.84699 8.06435 8.86324C8.12475 8.87948 8.18763 8.86415 8.23938 8.82056C8.29113 8.77698 8.32757 8.70865 8.3408 8.6304C8.35402 8.55214 8.34297 8.47027 8.31004 8.40253C7.94396 7.65334 7.58083 6.90173 7.22066 6.14772L6.62957 4.91284L6.44207 4.52009L6.43129 4.49878C6.31091 4.68488 6.22753 4.90651 6.18848 5.14423Z" fill="url(#paint11_radial_52_244)"/>
<g id="Group_3" filter="url(#filter0_f_52_244)">
<path id="Vector_15" fill-rule="evenodd" clip-rule="evenodd" d="M10.8532 8.34347L10.9198 13.6057C11.0074 15.0294 10.3831 16.5638 9.46243 17.2903C9.289 17.4273 9.10665 17.5375 8.91962 17.6221C7.90993 17.6355 6.90259 17.029 6.32462 15.9653L5.18134 13.9412L4.43697 12.2637C4.23447 11.8319 4.35025 10.9953 4.67322 10.7134C5.12462 10.3194 5.41103 10.4948 5.41103 10.4948C5.41103 10.4948 5.04072 9.72084 4.85556 9.27389C4.66993 8.82756 4.76931 8.14679 5.10165 7.88313C5.52728 7.54579 5.87462 7.9428 5.89618 7.97386C5.61775 7.48368 5.59525 6.38276 6.10853 5.9754C6.4179 5.73001 6.97806 5.67277 7.18103 6.10449L7.45056 6.55996C7.45056 6.55996 7.52275 6.02594 7.85509 5.76228L7.88322 5.74158L9.00447 8.34408C9.00447 8.34408 9.0279 7.57441 9.5154 7.28274L10.3357 9.18621C10.3357 9.18621 10.3577 8.43724 10.8251 8.13035C10.8382 8.20342 10.8471 8.27527 10.8532 8.34347Z" fill="#F06B0C"/>
</g>
<path id="Vector_16" d="M14.0406 13.6423V7.86671C13.9937 7.31868 13.689 6.5819 12.8982 6.5819C11.9748 6.63974 11.9387 7.86671 11.9387 7.86671L10.5324 4.60292C10.1809 3.90876 9.60431 3.86005 9.24337 4.14624C8.88243 4.43243 8.80322 5.01272 8.80322 5.01272L8.51025 4.51767C8.28994 4.04881 7.63087 3.99401 7.29478 4.26071C6.7365 4.70339 6.6554 5.61981 7.01634 6.12582C6.9929 6.09233 6.58884 6.02596 6.25462 6.33529C5.88197 6.67993 5.78212 7.477 5.98368 7.9617C6.18525 8.447 6.21431 8.52312 6.21431 8.52312C6.21431 8.52312 5.90306 8.33314 5.41228 8.7612C5.06118 9.06749 4.93556 9.9766 5.15587 10.4455L6.33759 13.0334L7.96415 16.4859C8.9204 18.2469 10.9595 18.8546 12.4407 17.6855C13.4509 16.889 14.1367 15.2041 14.0406 13.6423Z" fill="#FFC03C"/>
<path id="Vector_17" d="M14.0406 13.6423V7.86671C13.9937 7.31868 13.689 6.5819 12.8982 6.5819C11.9748 6.63974 11.9387 7.86671 11.9387 7.86671L10.5324 4.60292C10.1809 3.90876 9.60431 3.86005 9.24337 4.14624C8.88243 4.43243 8.80322 5.01272 8.80322 5.01272L8.51025 4.51767C8.28994 4.04881 7.63087 3.99401 7.29478 4.26071C6.7365 4.70339 6.6554 5.61981 7.01634 6.12582C6.9929 6.09233 6.58884 6.02596 6.25462 6.33529C5.88197 6.67993 5.78212 7.477 5.98368 7.9617C6.18525 8.447 6.21431 8.52312 6.21431 8.52312C6.21431 8.52312 5.90306 8.33314 5.41228 8.7612C5.06118 9.06749 4.93556 9.9766 5.15587 10.4455L6.33759 13.0334L7.96415 16.4859C8.9204 18.2469 10.9595 18.8546 12.4407 17.6855C13.4509 16.889 14.1367 15.2041 14.0406 13.6423Z" fill="url(#paint12_radial_52_244)"/>
<path id="Vector_18" d="M14.0406 13.6423V7.86671C13.9937 7.31868 13.689 6.5819 12.8982 6.5819C11.9748 6.63974 11.9387 7.86671 11.9387 7.86671L10.5324 4.60292C10.1809 3.90876 9.60431 3.86005 9.24337 4.14624C8.88243 4.43243 8.80322 5.01272 8.80322 5.01272L8.51025 4.51767C8.28994 4.04881 7.63087 3.99401 7.29478 4.26071C6.7365 4.70339 6.6554 5.61981 7.01634 6.12582C6.9929 6.09233 6.58884 6.02596 6.25462 6.33529C5.88197 6.67993 5.78212 7.477 5.98368 7.9617C6.18525 8.447 6.21431 8.52312 6.21431 8.52312C6.21431 8.52312 5.90306 8.33314 5.41228 8.7612C5.06118 9.06749 4.93556 9.9766 5.15587 10.4455L6.33759 13.0334L7.96415 16.4859C8.9204 18.2469 10.9595 18.8546 12.4407 17.6855C13.4509 16.889 14.1367 15.2041 14.0406 13.6423Z" fill="url(#paint13_radial_52_244)"/>
<path id="Vector_19" d="M14.0406 13.6423V7.86671C13.9937 7.31868 13.689 6.5819 12.8982 6.5819C11.9748 6.63974 11.9387 7.86671 11.9387 7.86671L10.5324 4.60292C10.1809 3.90876 9.60431 3.86005 9.24337 4.14624C8.88243 4.43243 8.80322 5.01272 8.80322 5.01272L8.51025 4.51767C8.28994 4.04881 7.63087 3.99401 7.29478 4.26071C6.7365 4.70339 6.6554 5.61981 7.01634 6.12582C6.9929 6.09233 6.58884 6.02596 6.25462 6.33529C5.88197 6.67993 5.78212 7.477 5.98368 7.9617C6.18525 8.447 6.21431 8.52312 6.21431 8.52312C6.21431 8.52312 5.90306 8.33314 5.41228 8.7612C5.06118 9.06749 4.93556 9.9766 5.15587 10.4455L6.33759 13.0334L7.96415 16.4859C8.9204 18.2469 10.9595 18.8546 12.4407 17.6855C13.4509 16.889 14.1367 15.2041 14.0406 13.6423Z" fill="url(#paint14_radial_52_244)"/>
<path id="Vector_20" d="M12.8985 6.58252C11.9751 6.63976 11.939 7.86733 11.939 7.86733L12.8179 9.74279C12.8179 9.74279 12.3562 8.04026 12.8985 6.58252Z" fill="url(#paint15_linear_52_244)"/>
<g id="Group_4" filter="url(#filter1_f_52_244)">
<path id="Vector_21" d="M13.9163 13.8724L13.6524 8.42082C13.6102 7.9276 13.4856 6.83156 12.7735 6.83156L12.6268 9.97173L11.499 7.66881L10.3566 5.04317C10.1504 4.63642 10.0121 4.57674 9.85134 4.52925C9.69009 4.48175 9.21384 4.48175 9.31649 4.7101C9.41915 4.93844 10.6056 7.24075 11.0377 8.20161C11.1985 8.56027 10.546 9.17223 10.2981 8.71554C10.0496 8.25885 8.30587 4.89094 8.30587 4.89094C8.10759 4.46897 7.41196 4.30517 7.41196 4.7101C7.41196 5.12111 9.08165 7.79364 9.45571 9.11499C9.60477 9.6417 9.05024 9.98939 8.84774 9.58142C8.64524 9.17344 7.79305 7.34548 7.36837 6.60382C7.22165 6.34747 6.79462 6.05823 6.65071 6.28962C6.37087 6.73961 6.69618 7.41307 6.87759 7.84966C6.97134 8.07496 8.03493 10.1538 8.45259 11.0848C8.65509 11.5373 7.93227 11.9598 7.74196 11.6462C7.55118 11.332 7.04399 9.9151 6.56259 9.11499C6.3254 8.72102 5.84399 8.7405 5.69821 8.86777C5.38227 9.14361 5.65227 9.86517 5.85055 10.2865C6.78149 12.5079 9.69712 19.5542 12.3634 17.4498C13.2727 16.7325 14.0026 15.2784 13.9163 13.8724Z" fill="url(#paint16_radial_52_244)"/>
</g>
<path id="Vector_22" d="M2.66832 3.94104L1.79644 3.46608C1.76489 3.44942 1.73697 3.42293 1.71516 3.38895C1.69335 3.35496 1.6783 3.31453 1.67136 3.27121C1.66441 3.2279 1.66577 3.18302 1.67532 3.14055C1.68488 3.09808 1.70232 3.05931 1.72613 3.02767L2.18082 2.40048C2.20419 2.36844 2.23318 2.34421 2.26531 2.32985C2.29744 2.31549 2.33176 2.31142 2.36536 2.318C2.39897 2.32458 2.43085 2.3416 2.45829 2.36762C2.48574 2.39365 2.50794 2.4279 2.52301 2.46746L2.94019 3.5696C3.01988 3.7949 2.84644 4.03847 2.66832 3.94104Z" fill="#1A80EA"/>
<path id="Vector_23" d="M2.66832 3.94104L1.79644 3.46608C1.76489 3.44942 1.73697 3.42293 1.71516 3.38895C1.69335 3.35496 1.6783 3.31453 1.67136 3.27121C1.66441 3.2279 1.66577 3.18302 1.67532 3.14055C1.68488 3.09808 1.70232 3.05931 1.72613 3.02767L2.18082 2.40048C2.20419 2.36844 2.23318 2.34421 2.26531 2.32985C2.29744 2.31549 2.33176 2.31142 2.36536 2.318C2.39897 2.32458 2.43085 2.3416 2.45829 2.36762C2.48574 2.39365 2.50794 2.4279 2.52301 2.46746L2.94019 3.5696C3.01988 3.7949 2.84644 4.03847 2.66832 3.94104Z" fill="url(#paint17_linear_52_244)"/>
<path id="Vector_24" d="M2.66832 3.94104L1.79644 3.46608C1.76489 3.44942 1.73697 3.42293 1.71516 3.38895C1.69335 3.35496 1.6783 3.31453 1.67136 3.27121C1.66441 3.2279 1.66577 3.18302 1.67532 3.14055C1.68488 3.09808 1.70232 3.05931 1.72613 3.02767L2.18082 2.40048C2.20419 2.36844 2.23318 2.34421 2.26531 2.32985C2.29744 2.31549 2.33176 2.31142 2.36536 2.318C2.39897 2.32458 2.43085 2.3416 2.45829 2.36762C2.48574 2.39365 2.50794 2.4279 2.52301 2.46746L2.94019 3.5696C3.01988 3.7949 2.84644 4.03847 2.66832 3.94104Z" fill="url(#paint18_linear_52_244)"/>
<path id="Vector_25" d="M2.66832 3.94104L1.79644 3.46608C1.76489 3.44942 1.73697 3.42293 1.71516 3.38895C1.69335 3.35496 1.6783 3.31453 1.67136 3.27121C1.66441 3.2279 1.66577 3.18302 1.67532 3.14055C1.68488 3.09808 1.70232 3.05931 1.72613 3.02767L2.18082 2.40048C2.20419 2.36844 2.23318 2.34421 2.26531 2.32985C2.29744 2.31549 2.33176 2.31142 2.36536 2.318C2.39897 2.32458 2.43085 2.3416 2.45829 2.36762C2.48574 2.39365 2.50794 2.4279 2.52301 2.46746L2.94019 3.5696C3.01988 3.7949 2.84644 4.03847 2.66832 3.94104Z" fill="url(#paint19_linear_52_244)"/>
<path id="Vector_26" d="M3.77458 2.95272L3.20271 1.9474C3.18206 1.91115 3.16832 1.86905 3.16263 1.82456C3.15694 1.78007 3.15947 1.73446 3.16999 1.69148C3.18052 1.6485 3.19874 1.60939 3.22317 1.57734C3.2476 1.5453 3.27754 1.52124 3.31052 1.50716L3.94802 1.24959C4.08865 1.19296 4.22927 1.34397 4.2199 1.53882L4.15427 2.80171C4.13552 3.05989 3.89177 3.16036 3.77458 2.95272Z" fill="#1A80EA"/>
<path id="Vector_27" d="M3.77458 2.95272L3.20271 1.9474C3.18206 1.91115 3.16832 1.86905 3.16263 1.82456C3.15694 1.78007 3.15947 1.73446 3.16999 1.69148C3.18052 1.6485 3.19874 1.60939 3.22317 1.57734C3.2476 1.5453 3.27754 1.52124 3.31052 1.50716L3.94802 1.24959C4.08865 1.19296 4.22927 1.34397 4.2199 1.53882L4.15427 2.80171C4.13552 3.05989 3.89177 3.16036 3.77458 2.95272Z" fill="url(#paint20_linear_52_244)"/>
<path id="Vector_28" d="M3.77458 2.95272L3.20271 1.9474C3.18206 1.91115 3.16832 1.86905 3.16263 1.82456C3.15694 1.78007 3.15947 1.73446 3.16999 1.69148C3.18052 1.6485 3.19874 1.60939 3.22317 1.57734C3.2476 1.5453 3.27754 1.52124 3.31052 1.50716L3.94802 1.24959C4.08865 1.19296 4.22927 1.34397 4.2199 1.53882L4.15427 2.80171C4.13552 3.05989 3.89177 3.16036 3.77458 2.95272Z" fill="url(#paint21_linear_52_244)"/>
<path id="Vector_29" d="M3.77458 2.95272L3.20271 1.9474C3.18206 1.91115 3.16832 1.86905 3.16263 1.82456C3.15694 1.78007 3.15947 1.73446 3.16999 1.69148C3.18052 1.6485 3.19874 1.60939 3.22317 1.57734C3.2476 1.5453 3.27754 1.52124 3.31052 1.50716L3.94802 1.24959C4.08865 1.19296 4.22927 1.34397 4.2199 1.53882L4.15427 2.80171C4.13552 3.05989 3.89177 3.16036 3.77458 2.95272Z" fill="url(#paint22_linear_52_244)"/>
<path id="Vector_30" d="M2.15221 5.55459L1.18143 5.71838C1.14648 5.72416 1.11096 5.71879 1.07796 5.70275C1.04496 5.6867 1.01546 5.66046 0.99202 5.62629C0.968576 5.59212 0.951889 5.55104 0.943401 5.50662C0.934914 5.46219 0.934882 5.41575 0.943307 5.3713L1.10362 4.49873C1.11224 4.4544 1.12888 4.41338 1.15216 4.37909C1.17543 4.34479 1.20467 4.3182 1.23745 4.30153C1.27022 4.28486 1.30558 4.27858 1.3406 4.28322C1.37561 4.28787 1.40927 4.3033 1.43878 4.32823L2.24971 5.03579C2.41471 5.18802 2.35143 5.52292 2.15221 5.55398V5.55459Z" fill="#1A80EA"/>
<path id="Vector_31" d="M2.15221 5.55459L1.18143 5.71838C1.14648 5.72416 1.11096 5.71879 1.07796 5.70275C1.04496 5.6867 1.01546 5.66046 0.99202 5.62629C0.968576 5.59212 0.951889 5.55104 0.943401 5.50662C0.934914 5.46219 0.934882 5.41575 0.943307 5.3713L1.10362 4.49873C1.11224 4.4544 1.12888 4.41338 1.15216 4.37909C1.17543 4.34479 1.20467 4.3182 1.23745 4.30153C1.27022 4.28486 1.30558 4.27858 1.3406 4.28322C1.37561 4.28787 1.40927 4.3033 1.43878 4.32823L2.24971 5.03579C2.41471 5.18802 2.35143 5.52292 2.15221 5.55398V5.55459Z" fill="url(#paint23_linear_52_244)"/>
<path id="Vector_32" d="M2.15221 5.55459L1.18143 5.71838C1.14648 5.72416 1.11096 5.71879 1.07796 5.70275C1.04496 5.6867 1.01546 5.66046 0.99202 5.62629C0.968576 5.59212 0.951889 5.55104 0.943401 5.50662C0.934914 5.46219 0.934882 5.41575 0.943307 5.3713L1.10362 4.49873C1.11224 4.4544 1.12888 4.41338 1.15216 4.37909C1.17543 4.34479 1.20467 4.3182 1.23745 4.30153C1.27022 4.28486 1.30558 4.27858 1.3406 4.28322C1.37561 4.28787 1.40927 4.3033 1.43878 4.32823L2.24971 5.03579C2.41471 5.18802 2.35143 5.52292 2.15221 5.55398V5.55459Z" fill="url(#paint24_linear_52_244)"/>
<path id="Vector_33" d="M2.15221 5.55459L1.18143 5.71838C1.14648 5.72416 1.11096 5.71879 1.07796 5.70275C1.04496 5.6867 1.01546 5.66046 0.99202 5.62629C0.968576 5.59212 0.951889 5.55104 0.943401 5.50662C0.934914 5.46219 0.934882 5.41575 0.943307 5.3713L1.10362 4.49873C1.11224 4.4544 1.12888 4.41338 1.15216 4.37909C1.17543 4.34479 1.20467 4.3182 1.23745 4.30153C1.27022 4.28486 1.30558 4.27858 1.3406 4.28322C1.37561 4.28787 1.40927 4.3033 1.43878 4.32823L2.24971 5.03579C2.41471 5.18802 2.35143 5.52292 2.15221 5.55398V5.55459Z" fill="url(#paint25_linear_52_244)"/>
<path id="Vector_34" d="M6.26934 8.53585C6.24904 8.52514 6.22856 8.51499 6.20793 8.5054C6.1343 8.32353 6.05976 8.14227 5.98434 7.96164C5.96545 7.91591 5.94946 7.86826 5.93652 7.81916C6.09262 7.81672 6.28012 7.88431 6.44606 7.97138C6.6466 8.07491 6.83267 8.22055 6.99684 8.4025C7.09152 8.5121 7.19137 8.6899 7.28512 8.87562C7.38262 9.06926 7.48715 9.30004 7.59121 9.53569C7.65449 9.67878 7.71731 9.8231 7.77824 9.96315C7.9013 10.2548 8.03057 10.5419 8.1659 10.8242C8.18261 10.8577 8.19407 10.8953 8.19961 10.9346C8.20516 10.9739 8.20469 11.0143 8.19823 11.0534C8.19176 11.0925 8.17943 11.1296 8.16194 11.1625C8.14445 11.1954 8.12214 11.2235 8.09629 11.2452C8.07044 11.2669 8.04154 11.2818 8.01126 11.289C7.98098 11.2962 7.9499 11.2956 7.9198 11.2872C7.8897 11.2788 7.86117 11.2628 7.83584 11.2401C7.8105 11.2174 7.78886 11.1884 7.77215 11.1548C7.65402 10.9173 7.50824 10.5812 7.36105 10.2414C7.3027 10.1068 7.24395 9.97239 7.1848 9.83832C7.08168 9.6051 6.98231 9.38711 6.89277 9.20931C6.79902 9.02359 6.72871 8.9079 6.68559 8.85736C6.56111 8.7217 6.42054 8.61312 6.26934 8.53585Z" fill="url(#paint26_radial_52_244)"/>
<path id="Vector_35" d="M6.97955 6.10263C6.91829 6.08689 6.8559 6.07975 6.79346 6.08132C6.87971 6.0728 6.94252 6.08741 6.97955 6.10263Z" fill="url(#paint27_radial_52_244)"/>
<path id="Vector_36" d="M7.58268 6.50204C7.4196 6.30825 7.22062 6.17272 7.00518 6.10868C6.88586 5.93069 6.8143 5.70716 6.80127 5.47176C7.08158 5.4681 7.50252 5.59537 7.89393 6.04718C7.99049 6.15861 8.11283 6.38147 8.23377 6.61956C8.36127 6.87165 8.50705 7.18098 8.65283 7.4964C8.76158 7.73205 8.86939 7.97013 8.97018 8.19239C9.14361 8.57418 9.29596 8.91091 9.39627 9.11185C9.41298 9.14543 9.42444 9.18297 9.42999 9.2223C9.43553 9.26164 9.43506 9.30201 9.4286 9.34111C9.42213 9.38021 9.4098 9.41727 9.39231 9.45018C9.37482 9.48309 9.35251 9.5112 9.32666 9.53291C9.30081 9.55462 9.27191 9.56951 9.24163 9.57671C9.21135 9.58392 9.18027 9.5833 9.15017 9.57491C9.12007 9.56651 9.09154 9.5505 9.06621 9.52778C9.04087 9.50506 9.01923 9.47608 9.00252 9.44249C8.85008 9.12557 8.70162 8.80544 8.55721 8.48223C8.45783 8.26241 8.3533 8.03163 8.25064 7.80938C8.11904 7.52103 7.98292 7.2362 7.84236 6.95507C7.71393 6.70176 7.62439 6.55075 7.58268 6.50204Z" fill="url(#paint28_radial_52_244)"/>
<path id="Vector_37" d="M8.80566 5.00227L8.81129 5.01506L9.40332 6.25115C9.76486 7.00803 10.1294 7.76249 10.4969 8.51449C10.5136 8.54808 10.5353 8.57706 10.5606 8.59978C10.5859 8.6225 10.6145 8.63851 10.6446 8.64691C10.6747 8.65531 10.7057 8.65592 10.736 8.64871C10.7663 8.64151 10.7952 8.62662 10.8211 8.60491C10.8469 8.5832 10.8692 8.55509 10.8867 8.52218C10.9042 8.48927 10.9165 8.45221 10.923 8.41311C10.9295 8.37401 10.9299 8.33364 10.9244 8.2943C10.9188 8.25497 10.9074 8.21744 10.8907 8.18385C10.5244 7.43459 10.1613 6.68277 9.80129 5.92843C9.57863 5.46504 9.36629 5.02115 9.20973 4.69355L9.05035 4.35986C8.93013 4.54526 8.84618 4.76565 8.80566 5.00227Z" fill="url(#paint29_linear_52_244)"/>
<g id="Group_5" filter="url(#filter2_f_52_244)">
<path id="Vector_38" d="M6.82666 6.6604C7.02682 6.67928 7.19416 6.71947 7.42854 7.19137C7.66291 7.66328 8.41479 9.26534 8.80572 10.0648" stroke="#FFE240" stroke-linecap="round" stroke-linejoin="round"/>
</g>
<g id="Group_6" filter="url(#filter3_f_52_244)">
<path id="Vector_39" d="M6.0498 9.0011C6.24996 9.01998 6.41777 9.06016 6.65215 9.53207C6.88652 10.004 7.31449 11.0945 7.70496 11.8934" stroke="#FFE240" stroke-linecap="round" stroke-linejoin="round"/>
</g>
<g id="Group_7" filter="url(#filter4_f_52_244)">
<path id="Vector_40" d="M6.5625 7.6499C6.76266 7.66878 6.98906 7.77717 7.22344 8.24907C7.45781 8.72098 7.95938 10.0478 8.34938 10.8467" stroke="url(#paint30_linear_52_244)" stroke-width="2" stroke-linecap="round" stroke-linejoin="round"/>
</g>
<g id="Group_8" filter="url(#filter5_f_52_244)">
<path id="Vector_41" d="M7.38281 5.38599C7.58297 5.40425 8.05828 5.59911 8.29266 6.07041C8.52703 6.54232 9.18937 8.20161 9.58031 9.00112" stroke="url(#paint31_linear_52_244)" stroke-width="2" stroke-linecap="round" stroke-linejoin="round"/>
</g>
<g id="Group_9" filter="url(#filter6_f_52_244)">
<path id="Vector_42" d="M7.86475 5.21558C8.0649 5.23445 8.23271 5.27464 8.46709 5.74655C8.70146 6.21846 9.99522 8.75398 10.3857 9.55288" stroke="#FFE240" stroke-linecap="round" stroke-linejoin="round"/>
</g>
<g id="Group_10" filter="url(#filter7_f_52_244)">
<path id="Vector_43" d="M9.62012 4.61694C9.82027 4.63643 9.98762 4.67601 10.222 5.14792C10.4564 5.61983 11.7651 8.78253 12.1556 9.58143" stroke="#FFE240" stroke-linecap="round" stroke-linejoin="round"/>
</g>
<g id="Group_11" filter="url(#filter8_f_52_244)">
<path id="Vector_44" d="M13.2876 7.23035C13.454 7.37649 13.5838 7.51958 13.6063 8.08039C13.6279 8.6412 13.5482 12.2301 13.5801 13.1758" stroke="#FFE240" stroke-linecap="round" stroke-linejoin="round"/>
</g>
</g>
</g>
</g>
</g>
</g>
<defs>
<filter id="filter0_f_52_244" x="1.83643" y="3.24158" width="11.5913" height="16.8807" filterUnits="userSpaceOnUse" color-interpolation-filters="sRGB">
<feFlood flood-opacity="0" result="BackgroundImageFix"/>
<feBlend mode="normal" in="SourceGraphic" in2="BackgroundImageFix" result="shape"/>
<feGaussianBlur stdDeviation="1.25" result="effect1_foregroundBlur_52_244"/>
</filter>
<filter id="filter1_f_52_244" x="4.55322" y="3.47729" width="10.3701" height="15.3601" filterUnits="userSpaceOnUse" color-interpolation-filters="sRGB">
<feFlood flood-opacity="0" result="BackgroundImageFix"/>
<feBlend mode="normal" in="SourceGraphic" in2="BackgroundImageFix" result="shape"/>
<feGaussianBlur stdDeviation="0.5" result="effect1_foregroundBlur_52_244"/>
</filter>
<filter id="filter2_f_52_244" x="5.32666" y="5.1604" width="4.979" height="6.40454" filterUnits="userSpaceOnUse" color-interpolation-filters="sRGB">
<feFlood flood-opacity="0" result="BackgroundImageFix"/>
<feBlend mode="normal" in="SourceGraphic" in2="BackgroundImageFix" result="shape"/>
<feGaussianBlur stdDeviation="0.5" result="effect1_foregroundBlur_52_244"/>
</filter>
<filter id="filter3_f_52_244" x="4.5498" y="7.5011" width="4.65527" height="5.89246" filterUnits="userSpaceOnUse" color-interpolation-filters="sRGB">
<feFlood flood-opacity="0" result="BackgroundImageFix"/>
<feBlend mode="normal" in="SourceGraphic" in2="BackgroundImageFix" result="shape"/>
<feGaussianBlur stdDeviation="0.5" result="effect1_foregroundBlur_52_244"/>
</filter>
<filter id="filter4_f_52_244" x="5.0625" y="6.14978" width="4.78711" height="6.19714" filterUnits="userSpaceOnUse" color-interpolation-filters="sRGB">
<feFlood flood-opacity="0" result="BackgroundImageFix"/>
<feBlend mode="normal" in="SourceGraphic" in2="BackgroundImageFix" result="shape"/>
<feGaussianBlur stdDeviation="0.25" result="effect1_foregroundBlur_52_244"/>
</filter>
<filter id="filter5_f_52_244" x="5.88281" y="3.88586" width="5.19775" height="6.61548" filterUnits="userSpaceOnUse" color-interpolation-filters="sRGB">
<feFlood flood-opacity="0" result="BackgroundImageFix"/>
<feBlend mode="normal" in="SourceGraphic" in2="BackgroundImageFix" result="shape"/>
<feGaussianBlur stdDeviation="0.25" result="effect1_foregroundBlur_52_244"/>
</filter>
<filter id="filter6_f_52_244" x="6.36475" y="3.71558" width="5.521" height="7.3374" filterUnits="userSpaceOnUse" color-interpolation-filters="sRGB">
<feFlood flood-opacity="0" result="BackgroundImageFix"/>
<feBlend mode="normal" in="SourceGraphic" in2="BackgroundImageFix" result="shape"/>
<feGaussianBlur stdDeviation="0.5" result="effect1_foregroundBlur_52_244"/>
</filter>
<filter id="filter7_f_52_244" x="8.12012" y="3.11694" width="5.53564" height="7.9646" filterUnits="userSpaceOnUse" color-interpolation-filters="sRGB">
<feFlood flood-opacity="0" result="BackgroundImageFix"/>
<feBlend mode="normal" in="SourceGraphic" in2="BackgroundImageFix" result="shape"/>
<feGaussianBlur stdDeviation="0.5" result="effect1_foregroundBlur_52_244"/>
</filter>
<filter id="filter8_f_52_244" x="11.7876" y="5.73035" width="3.32227" height="8.94543" filterUnits="userSpaceOnUse" color-interpolation-filters="sRGB">
<feFlood flood-opacity="0" result="BackgroundImageFix"/>
<feBlend mode="normal" in="SourceGraphic" in2="BackgroundImageFix" result="shape"/>
<feGaussianBlur stdDeviation="0.5" result="effect1_foregroundBlur_52_244"/>
</filter>
<linearGradient id="paint0_linear_52_244" x1="9.99058" y1="17.9065" x2="4.75489" y2="10.6324" gradientUnits="userSpaceOnUse">
<stop stop-color="#FF6C4C"/>
<stop offset="1" stop-color="#FF6D47" stop-opacity="0"/>
</linearGradient>
<radialGradient id="paint1_radial_52_244" cx="0" cy="0" r="1" gradientUnits="userSpaceOnUse" gradientTransform="translate(4.90745 7.82099) rotate(64.6954) scale(2.67313 0.92593)">
<stop stop-color="#FFAF33"/>
<stop offset="1" stop-color="#FA8221"/>
</radialGradient>
<radialGradient id="paint2_radial_52_244" cx="0" cy="0" r="1" gradientUnits="userSpaceOnUse" gradientTransform="translate(4.38011 6.90823) rotate(91.6035) scale(1.04698 0.802205)">
<stop stop-color="#FFAE28"/>
<stop offset="1" stop-color="#FFAF31" stop-opacity="0"/>
</radialGradient>
<radialGradient id="paint3_radial_52_244" cx="0" cy="0" r="1" gradientUnits="userSpaceOnUse" gradientTransform="translate(3.80875 9.89493) rotate(63.728) scale(2.7799 0.695569)">
<stop stop-color="#FE9E29"/>
<stop offset="1" stop-color="#FE9E28" stop-opacity="0"/>
</radialGradient>
<radialGradient id="paint4_radial_52_244" cx="0" cy="0" r="1" gradientUnits="userSpaceOnUse" gradientTransform="translate(3.66245 9.57223) rotate(68.948) scale(1.18259 0.810287)">
<stop stop-color="#FF9D25"/>
<stop offset="1" stop-color="#FF9F24" stop-opacity="0"/>
</radialGradient>
<radialGradient id="paint5_radial_52_244" cx="0" cy="0" r="1" gradientUnits="userSpaceOnUse" gradientTransform="translate(5.52245 5.36646) rotate(64.6055) scale(2.52766 0.947266)">
<stop stop-color="#FFC133"/>
<stop offset="1" stop-color="#FFC93C" stop-opacity="0"/>
</radialGradient>
<radialGradient id="paint6_radial_52_244" cx="0" cy="0" r="1" gradientUnits="userSpaceOnUse" gradientTransform="translate(5.4348 4.87202) rotate(59.3153) scale(1.06208 0.736664)">
<stop stop-color="#FFC53A"/>
<stop offset="1" stop-color="#FFC83C" stop-opacity="0"/>
</radialGradient>
<radialGradient id="paint7_radial_52_244" cx="0" cy="0" r="1" gradientUnits="userSpaceOnUse" gradientTransform="translate(7.11949 6.79375) rotate(90.4915) scale(22.6068 15.0506)">
<stop offset="0.37" stop-color="#FF6C5E" stop-opacity="0"/>
<stop offset="0.54" stop-color="#FF6B5E"/>
</radialGradient>
<radialGradient id="paint8_radial_52_244" cx="0" cy="0" r="1" gradientUnits="userSpaceOnUse" gradientTransform="translate(7.07495 4.37697) rotate(65.8794) scale(2.0432 1.92821)">
<stop stop-color="#FFAC31"/>
<stop offset="1" stop-color="#FFA92E" stop-opacity="0"/>
</radialGradient>
<radialGradient id="paint9_radial_52_244" cx="0" cy="0" r="1" gradientUnits="userSpaceOnUse" gradientTransform="translate(4.35082 10.1812) rotate(-42.3906) scale(0.733844 2.38303)">
<stop stop-color="#DB5703"/>
<stop offset="0.595" stop-color="#C94A04"/>
<stop offset="1" stop-color="#D65A05" stop-opacity="0"/>
</radialGradient>
<radialGradient id="paint10_radial_52_244" cx="0" cy="0" r="1" gradientUnits="userSpaceOnUse" gradientTransform="translate(4.99539 8.33494) rotate(-50.079) scale(1.14132 3.61793)">
<stop stop-color="#DB5703"/>
<stop offset="0.595" stop-color="#C94A04"/>
<stop offset="1" stop-color="#D65A05" stop-opacity="0"/>
</radialGradient>
<radialGradient id="paint11_radial_52_244" cx="0" cy="0" r="1" gradientUnits="userSpaceOnUse" gradientTransform="translate(6.56254 7.00325) rotate(-49.6538) scale(0.724046 2.35724)">
<stop stop-color="#DB5703"/>
<stop offset="0.595" stop-color="#C94A04"/>
<stop offset="1" stop-color="#D65A05" stop-opacity="0"/>
</radialGradient>
<radialGradient id="paint12_radial_52_244" cx="0" cy="0" r="1" gradientUnits="userSpaceOnUse" gradientTransform="translate(10.5765 12.274) rotate(77.0471) scale(6.40433 3.38545)">
<stop stop-color="#FFD945"/>
<stop offset="0.633" stop-color="#FFD343"/>
<stop offset="1" stop-color="#FFD543" stop-opacity="0"/>
</radialGradient>
<radialGradient id="paint13_radial_52_244" cx="0" cy="0" r="1" gradientUnits="userSpaceOnUse" gradientTransform="translate(14.0499 9.64839) rotate(96.5133) scale(8.92494 1.83046)">
<stop stop-color="#FFE044"/>
<stop offset="1" stop-color="#FFE143" stop-opacity="0"/>
</radialGradient>
<radialGradient id="paint14_radial_52_244" cx="0" cy="0" r="1" gradientUnits="userSpaceOnUse" gradientTransform="translate(9.69773 20.2657) rotate(-117.987) scale(13.3602 9.31969)">
<stop stop-color="#FA825D"/>
<stop offset="0.883" stop-color="#F67B7D" stop-opacity="0"/>
</radialGradient>
<linearGradient id="paint15_linear_52_244" x1="12.0121" y1="8.16265" x2="12.9734" y2="8.1124" gradientUnits="userSpaceOnUse">
<stop stop-color="#D48820"/>
<stop offset="0.345" stop-color="#E39C2A" stop-opacity="0.649"/>
<stop offset="0.735" stop-color="#FFC03C" stop-opacity="0"/>
</linearGradient>
<radialGradient id="paint16_radial_52_244" cx="0" cy="0" r="1" gradientUnits="userSpaceOnUse" gradientTransform="translate(11.5139 12.4643) rotate(127.113) scale(5.58367 14.061)">
<stop stop-color="#FFDB45"/>
<stop offset="0.484" stop-color="#FFD646"/>
<stop offset="0.915" stop-color="#FFDA45" stop-opacity="0"/>
<stop offset="0.97" stop-color="#FFDA45" stop-opacity="0"/>
</radialGradient>
<linearGradient id="paint17_linear_52_244" x1="1.8241" y1="2.78836" x2="2.14385" y2="3.01935" gradientUnits="userSpaceOnUse">
<stop stop-color="#2065A3"/>
<stop offset="1" stop-color="#2067AE" stop-opacity="0"/>
</linearGradient>
<linearGradient id="paint18_linear_52_244" x1="2.15738" y1="4.02994" x2="2.37729" y2="3.6375" gradientUnits="userSpaceOnUse">
<stop offset="0.605" stop-color="#1C60FF"/>
<stop offset="1" stop-color="#1963FF" stop-opacity="0"/>
</linearGradient>
<linearGradient id="paint19_linear_52_244" x1="2.70301" y1="2.80724" x2="2.49522" y2="2.89157" gradientUnits="userSpaceOnUse">
<stop stop-color="#2093F1"/>
<stop offset="1" stop-color="#2294F3" stop-opacity="0"/>
</linearGradient>
<linearGradient id="paint20_linear_52_244" x1="3.59646" y1="1.17103" x2="3.79236" y2="1.66835" gradientUnits="userSpaceOnUse">
<stop stop-color="#2065A3"/>
<stop offset="1" stop-color="#2067AE" stop-opacity="0"/>
</linearGradient>
<linearGradient id="paint21_linear_52_244" x1="3.45724" y1="2.81206" x2="3.75446" y2="2.64467" gradientUnits="userSpaceOnUse">
<stop offset="0.605" stop-color="#1C60FF"/>
<stop offset="1" stop-color="#1963FF" stop-opacity="0"/>
</linearGradient>
<linearGradient id="paint22_linear_52_244" x1="4.1899" y1="1.87494" x2="4.06085" y2="1.86988" gradientUnits="userSpaceOnUse">
<stop stop-color="#2093F1"/>
<stop offset="1" stop-color="#2294F3" stop-opacity="0"/>
</linearGradient>
<linearGradient id="paint23_linear_52_244" x1="0.937682" y1="5.00108" x2="1.25998" y2="5.06126" gradientUnits="userSpaceOnUse">
<stop stop-color="#2065A3"/>
<stop offset="1" stop-color="#2067AE" stop-opacity="0"/>
</linearGradient>
<linearGradient id="paint24_linear_52_244" x1="1.64081" y1="5.94673" x2="1.59197" y2="5.46403" gradientUnits="userSpaceOnUse">
<stop offset="0.605" stop-color="#1C60FF"/>
<stop offset="1" stop-color="#1963FF" stop-opacity="0"/>
</linearGradient>
<linearGradient id="paint25_linear_52_244" x1="1.83299" y1="4.58398" x2="1.64554" y2="4.79469" gradientUnits="userSpaceOnUse">
<stop stop-color="#2093F1"/>
<stop offset="1" stop-color="#2294F3" stop-opacity="0"/>
</linearGradient>
<radialGradient id="paint26_radial_52_244" cx="0" cy="0" r="1" gradientUnits="userSpaceOnUse" gradientTransform="translate(6.87074 9.55639) rotate(63.5488) scale(2.99264 0.490424)">
<stop stop-color="#B64200"/>
<stop offset="1" stop-color="#FFB02E" stop-opacity="0"/>
</radialGradient>
<radialGradient id="paint27_radial_52_244" cx="0" cy="0" r="1" gradientUnits="userSpaceOnUse" gradientTransform="translate(7.88109 7.52662) rotate(63.8936) scale(3.52875 0.57297)">
<stop stop-color="#B64200"/>
<stop offset="1" stop-color="#FFB02E" stop-opacity="0"/>
</radialGradient>
<radialGradient id="paint28_radial_52_244" cx="0" cy="0" r="1" gradientUnits="userSpaceOnUse" gradientTransform="translate(7.88093 7.52659) rotate(63.8939) scale(3.52878 0.572971)">
<stop stop-color="#B64200"/>
<stop offset="1" stop-color="#FFB02E" stop-opacity="0"/>
</radialGradient>
<linearGradient id="paint29_linear_52_244" x1="9.46332" y1="6.37537" x2="9.91313" y2="6.17429" gradientUnits="userSpaceOnUse">
<stop stop-color="#E49224"/>
<stop offset="0.589" stop-color="#FFB02E" stop-opacity="0"/>
</linearGradient>
<linearGradient id="paint30_linear_52_244" x1="6.75281" y1="8.96333" x2="7.74701" y2="8.52427" gradientUnits="userSpaceOnUse">
<stop stop-color="#FDB137"/>
<stop offset="0.447" stop-color="#FFBA3C" stop-opacity="0"/>
<stop offset="1" stop-color="#FCAD33" stop-opacity="0"/>
</linearGradient>
<linearGradient id="paint31_linear_52_244" x1="7.8225" y1="6.78466" x2="8.81611" y2="6.34604" gradientUnits="userSpaceOnUse">
<stop stop-color="#FDB137"/>
<stop offset="0.447" stop-color="#FFBA3C" stop-opacity="0"/>
<stop offset="1" stop-color="#FCAD33" stop-opacity="0"/>
</linearGradient>
<clipPath id="clip0_52_244">
<rect width="15" height="19.4853" fill="white" transform="translate(0 0.0195312)"/>
</clipPath>
</defs>
</svg>
